<svg width="25" height="25" viewBox="0 0 25 25" fill="none" xmlns="http://www.w3.org/2000/svg">
<path d="M21.875 19.7917V20.8333H3.125V19.7917L5.20833 17.7083V11.4583C5.20833 8.22917 7.32292 5.38542 10.4167 4.46875V4.16667C10.4167 3.61413 10.6362 3.08423 11.0269 2.69353C11.4176 2.30283 11.9475 2.08334 12.5 2.08334C13.0525 2.08334 13.5824 2.30283 13.9731 2.69353C14.3638 3.08423 14.5833 3.61413 14.5833 4.16667V4.46875C17.6771 5.38542 19.7917 8.22917 19.7917 11.4583V17.7083L21.875 19.7917ZM14.5833 21.875C14.5833 22.4275 14.3638 22.9574 13.9731 23.3481C13.5824 23.7388 13.0525 23.9583 12.5 23.9583C11.9475 23.9583 11.4176 23.7388 11.0269 23.3481C10.6362 22.9574 10.4167 22.4275 10.4167 21.875" fill="black"/>
</svg>
